<svg version="1.1" xmlns="http://www.w3.org/2000/svg" xmlns:xlink="http://www.w3.org/1999/xlink" width="699.9999833106995" height="277.49999338388443"><defs/><g transform="translate(-54.249998706579206,-242.49999421834946) scale(2.4999999403953552,2.4999999403953552)"><path fill="none" stroke="rgb(0,223,43)" paint-order="fill stroke markers" d=" M 112 105 L 196 105" stroke-opacity="0.7" stroke-linejoin="round" stroke-miterlimit="10" stroke-width="1.5"/><path fill="none" stroke="none"/><path fill="rgb(202,203,204)" stroke="none" paint-order="stroke fill markers" d=" M 127.5 101.27000000000001 L 136.5 101.27000000000001 Q 138.5 101.27000000000001 138.5 103.27000000000001 L 138.5 106.73 Q 138.5 108.73 136.5 108.73 L 127.5 108.73 Q 125.5 108.73 125.5 106.73 L 125.5 103.27000000000001 Q 125.5 101.27000000000001 127.5 101.27000000000001 Z" fill-opacity="0.7"/><text fill="none" stroke="rgb(255,255,255)" font-family="Helvetica Neue, Helvetica, sans-serif" font-size="5.46px" font-style="normal" font-weight="normal" text-decoration="normal" x="132" y="107.73" text-anchor="middle" dominant-baseline="text-after-edge" stroke-opacity="0.7" stroke-linejoin="round" stroke-miterlimit="10" stroke-width="0.6">e1-1</text><text fill="rgb(0,0,0)" stroke="none" font-family="Helvetica Neue, Helvetica, sans-serif" font-size="5.46px" font-style="normal" font-weight="normal" text-decoration="normal" x="132" y="107.73" text-anchor="middle" dominant-baseline="text-after-edge" fill-opacity="0.7">e1-1</text><path fill="none" stroke="none"/><path fill="rgb(202,203,204)" stroke="none" paint-order="stroke fill markers" d=" M 171.5 101.27000000000001 L 180.5 101.27000000000001 Q 182.5 101.27000000000001 182.5 103.27000000000001 L 182.5 106.73 Q 182.5 108.73 180.5 108.73 L 171.5 108.73 Q 169.5 108.73 169.5 106.73 L 169.5 103.27000000000001 Q 169.5 101.27000000000001 171.5 101.27000000000001 Z" fill-opacity="0.7"/><text fill="none" stroke="rgb(255,255,255)" font-family="Helvetica Neue, Helvetica, sans-serif" font-size="5.46px" font-style="normal" font-weight="normal" text-decoration="normal" x="176" y="107.73" text-anchor="middle" dominant-baseline="text-after-edge" stroke-opacity="0.7" stroke-linejoin="round" stroke-miterlimit="10" stroke-width="0.6">e1-2</text><text fill="rgb(0,0,0)" stroke="none" font-family="Helvetica Neue, Helvetica, sans-serif" font-size="5.46px" font-style="normal" font-weight="normal" text-decoration="normal" x="176" y="107.73" text-anchor="middle" dominant-baseline="text-after-edge" fill-opacity="0.7">e1-2</text><path fill="none" stroke="rgb(0,223,43)" paint-order="fill stroke markers" d=" M 203 112 L 203 182" stroke-opacity="0.7" stroke-linejoin="round" stroke-miterlimit="10" stroke-width="1.5"/><path fill="none" stroke="none"/><path fill="rgb(202,203,204)" stroke="none" paint-order="stroke fill markers" d=" M 198.5 128.26999999999998 L 207.5 128.26999999999998 Q 209.5 128.26999999999998 209.5 130.26999999999998 L 209.5 133.73 Q 209.5 135.73 207.5 135.73 L 198.5 135.73 Q 196.5 135.73 196.5 133.73 L 196.5 130.26999999999998 Q 196.5 128.26999999999998 198.5 128.26999999999998 Z" fill-opacity="0.7"/><text fill="none" stroke="rgb(255,255,255)" font-family="Helvetica Neue, Helvetica, sans-serif" font-size="5.46px" font-style="normal" font-weight="normal" text-decoration="normal" x="203" y="134.73" text-anchor="middle" dominant-baseline="text-after-edge" stroke-opacity="0.7" stroke-linejoin="round" stroke-miterlimit="10" stroke-width="0.6">e1-1</text><text fill="rgb(0,0,0)" stroke="none" font-family="Helvetica Neue, Helvetica, sans-serif" font-size="5.46px" font-style="normal" font-weight="normal" text-decoration="normal" x="203" y="134.73" text-anchor="middle" dominant-baseline="text-after-edge" fill-opacity="0.7">e1-1</text><path fill="none" stroke="none"/><path fill="rgb(202,203,204)" stroke="none" paint-order="stroke fill markers" d=" M 198.5 158.26999999999998 L 207.5 158.26999999999998 Q 209.5 158.26999999999998 209.5 160.26999999999998 L 209.5 163.73 Q 209.5 165.73 207.5 165.73 L 198.5 165.73 Q 196.5 165.73 196.5 163.73 L 196.5 160.26999999999998 Q 196.5 158.26999999999998 198.5 158.26999999999998 Z" fill-opacity="0.7"/><text fill="none" stroke="rgb(255,255,255)" font-family="Helvetica Neue, Helvetica, sans-serif" font-size="5.46px" font-style="normal" font-weight="normal" text-decoration="normal" x="203" y="164.73" text-anchor="middle" dominant-baseline="text-after-edge" stroke-opacity="0.7" stroke-linejoin="round" stroke-miterlimit="10" stroke-width="0.6">e1-2</text><text fill="rgb(0,0,0)" stroke="none" font-family="Helvetica Neue, Helvetica, sans-serif" font-size="5.46px" font-style="normal" font-weight="normal" text-decoration="normal" x="203" y="164.73" text-anchor="middle" dominant-baseline="text-after-edge" fill-opacity="0.7">e1-2</text><path fill="none" stroke="rgb(0,223,43)" paint-order="fill stroke markers" d=" M 196 189 L 112 189" stroke-opacity="0.7" stroke-linejoin="round" stroke-miterlimit="10" stroke-width="1.5"/><path fill="none" stroke="none"/><path fill="rgb(202,203,204)" stroke="none" paint-order="stroke fill markers" d=" M 171.5 185.26999999999998 L 180.5 185.26999999999998 Q 182.5 185.26999999999998 182.5 187.26999999999998 L 182.5 190.73 Q 182.5 192.73 180.5 192.73 L 171.5 192.73 Q 169.5 192.73 169.5 190.73 L 169.5 187.26999999999998 Q 169.5 185.26999999999998 171.5 185.26999999999998 Z" fill-opacity="0.7"/><text fill="none" stroke="rgb(255,255,255)" font-family="Helvetica Neue, Helvetica, sans-serif" font-size="5.46px" font-style="normal" font-weight="normal" text-decoration="normal" x="176" y="191.73" text-anchor="middle" dominant-baseline="text-after-edge" stroke-opacity="0.7" stroke-linejoin="round" stroke-miterlimit="10" stroke-width="0.6">e1-1</text><text fill="rgb(0,0,0)" stroke="none" font-family="Helvetica Neue, Helvetica, sans-serif" font-size="5.46px" font-style="normal" font-weight="normal" text-decoration="normal" x="176" y="191.73" text-anchor="middle" dominant-baseline="text-after-edge" fill-opacity="0.7">e1-1</text><path fill="none" stroke="none"/><path fill="rgb(202,203,204)" stroke="none" paint-order="stroke fill markers" d=" M 127.5 185.26999999999998 L 136.5 185.26999999999998 Q 138.5 185.26999999999998 138.5 187.26999999999998 L 138.5 190.73 Q 138.5 192.73 136.5 192.73 L 127.5 192.73 Q 125.5 192.73 125.5 190.73 L 125.5 187.26999999999998 Q 125.5 185.26999999999998 127.5 185.26999999999998 Z" fill-opacity="0.7"/><text fill="none" stroke="rgb(255,255,255)" font-family="Helvetica Neue, Helvetica, sans-serif" font-size="5.46px" font-style="normal" font-weight="normal" text-decoration="normal" x="132" y="191.73" text-anchor="middle" dominant-baseline="text-after-edge" stroke-opacity="0.7" stroke-linejoin="round" stroke-miterlimit="10" stroke-width="0.6">e1-2</text><text fill="rgb(0,0,0)" stroke="none" font-family="Helvetica Neue, Helvetica, sans-serif" font-size="5.46px" font-style="normal" font-weight="normal" text-decoration="normal" x="132" y="191.73" text-anchor="middle" dominant-baseline="text-after-edge" fill-opacity="0.7">e1-2</text><path fill="none" stroke="rgb(0,223,43)" paint-order="fill stroke markers" d=" M 105 182 L 105 112" stroke-opacity="0.7" stroke-linejoin="round" stroke-miterlimit="10" stroke-width="1.5"/><path fill="none" stroke="none"/><path fill="rgb(202,203,204)" stroke="none" paint-order="stroke fill markers" d=" M 100.5 158.26999999999998 L 109.5 158.26999999999998 Q 111.5 158.26999999999998 111.5 160.26999999999998 L 111.5 163.73 Q 111.5 165.73 109.5 165.73 L 100.5 165.73 Q 98.5 165.73 98.5 163.73 L 98.5 160.26999999999998 Q 98.5 158.26999999999998 100.5 158.26999999999998 Z" fill-opacity="0.7"/><text fill="none" stroke="rgb(255,255,255)" font-family="Helvetica Neue, Helvetica, sans-serif" font-size="5.46px" font-style="normal" font-weight="normal" text-decoration="normal" x="105" y="164.73" text-anchor="middle" dominant-baseline="text-after-edge" stroke-opacity="0.7" stroke-linejoin="round" stroke-miterlimit="10" stroke-width="0.6">e1-1</text><text fill="rgb(0,0,0)" stroke="none" font-family="Helvetica Neue, Helvetica, sans-serif" font-size="5.46px" font-style="normal" font-weight="normal" text-decoration="normal" x="105" y="164.73" text-anchor="middle" dominant-baseline="text-after-edge" fill-opacity="0.7">e1-1</text><path fill="none" stroke="none"/><path fill="rgb(202,203,204)" stroke="none" paint-order="stroke fill markers" d=" M 100.5 128.26999999999998 L 109.5 128.26999999999998 Q 111.5 128.26999999999998 111.5 130.26999999999998 L 111.5 133.73 Q 111.5 135.73 109.5 135.73 L 100.5 135.73 Q 98.5 135.73 98.5 133.73 L 98.5 130.26999999999998 Q 98.5 128.26999999999998 100.5 128.26999999999998 Z" fill-opacity="0.7"/><text fill="none" stroke="rgb(255,255,255)" font-family="Helvetica Neue, Helvetica, sans-serif" font-size="5.46px" font-style="normal" font-weight="normal" text-decoration="normal" x="105" y="134.73" text-anchor="middle" dominant-baseline="text-after-edge" stroke-opacity="0.7" stroke-linejoin="round" stroke-miterlimit="10" stroke-width="0.6">e1-2</text><text fill="rgb(0,0,0)" stroke="none" font-family="Helvetica Neue, Helvetica, sans-serif" font-size="5.46px" font-style="normal" font-weight="normal" text-decoration="normal" x="105" y="134.73" text-anchor="middle" dominant-baseline="text-after-edge" fill-opacity="0.7">e1-2</text><path fill="none" stroke="rgb(0,223,43)" paint-order="fill stroke markers" d=" M 42 105 L 98 105" stroke-opacity="0.7" stroke-linejoin="round" stroke-miterlimit="10" stroke-width="1.5"/><path fill="none" stroke="none"/><path fill="rgb(202,203,204)" stroke="none" paint-order="stroke fill markers" d=" M 57.5 101.27000000000001 L 66.5 101.27000000000001 Q 68.5 101.27000000000001 68.5 103.27000000000001 L 68.5 106.73 Q 68.5 108.73 66.5 108.73 L 57.5 108.73 Q 55.5 108.73 55.5 106.73 L 55.5 103.27000000000001 Q 55.5 101.27000000000001 57.5 101.27000000000001 Z" fill-opacity="0.7"/><text fill="none" stroke="rgb(255,255,255)" font-family="Helvetica Neue, Helvetica, sans-serif" font-size="5.46px" font-style="normal" font-weight="normal" text-decoration="normal" x="62" y="107.73" text-anchor="middle" dominant-baseline="text-after-edge" stroke-opacity="0.7" stroke-linejoin="round" stroke-miterlimit="10" stroke-width="0.6">e1-1</text><text fill="rgb(0,0,0)" stroke="none" font-family="Helvetica Neue, Helvetica, sans-serif" font-size="5.46px" font-style="normal" font-weight="normal" text-decoration="normal" x="62" y="107.73" text-anchor="middle" dominant-baseline="text-after-edge" fill-opacity="0.7">e1-1</text><path fill="none" stroke="none"/><path fill="rgb(202,203,204)" stroke="none" paint-order="stroke fill markers" d=" M 73.5 101.27000000000001 L 82.5 101.27000000000001 Q 84.5 101.27000000000001 84.5 103.27000000000001 L 84.5 106.73 Q 84.5 108.73 82.5 108.73 L 73.5 108.73 Q 71.5 108.73 71.5 106.73 L 71.5 103.27000000000001 Q 71.5 101.27000000000001 73.5 101.27000000000001 Z" fill-opacity="0.7"/><text fill="none" stroke="rgb(255,255,255)" font-family="Helvetica Neue, Helvetica, sans-serif" font-size="5.46px" font-style="normal" font-weight="normal" text-decoration="normal" x="78" y="107.73" text-anchor="middle" dominant-baseline="text-after-edge" stroke-opacity="0.7" stroke-linejoin="round" stroke-miterlimit="10" stroke-width="0.6">e1-3</text><text fill="rgb(0,0,0)" stroke="none" font-family="Helvetica Neue, Helvetica, sans-serif" font-size="5.46px" font-style="normal" font-weight="normal" text-decoration="normal" x="78" y="107.73" text-anchor="middle" dominant-baseline="text-after-edge" fill-opacity="0.7">e1-3</text><path fill="none" stroke="rgb(0,223,43)" paint-order="fill stroke markers" d=" M 280 105 L 210 105" stroke-opacity="0.7" stroke-linejoin="round" stroke-miterlimit="10" stroke-width="1.5"/><path fill="none" stroke="none"/><path fill="rgb(202,203,204)" stroke="none" paint-order="stroke fill markers" d=" M 255.5 101.27000000000001 L 264.5 101.27000000000001 Q 266.5 101.27000000000001 266.5 103.27000000000001 L 266.5 106.73 Q 266.5 108.73 264.5 108.73 L 255.5 108.73 Q 253.5 108.73 253.5 106.73 L 253.5 103.27000000000001 Q 253.5 101.27000000000001 255.5 101.27000000000001 Z" fill-opacity="0.7"/><text fill="none" stroke="rgb(255,255,255)" font-family="Helvetica Neue, Helvetica, sans-serif" font-size="5.46px" font-style="normal" font-weight="normal" text-decoration="normal" x="260" y="107.73" text-anchor="middle" dominant-baseline="text-after-edge" stroke-opacity="0.7" stroke-linejoin="round" stroke-miterlimit="10" stroke-width="0.6">e1-1</text><text fill="rgb(0,0,0)" stroke="none" font-family="Helvetica Neue, Helvetica, sans-serif" font-size="5.46px" font-style="normal" font-weight="normal" text-decoration="normal" x="260" y="107.73" text-anchor="middle" dominant-baseline="text-after-edge" fill-opacity="0.7">e1-1</text><path fill="none" stroke="none"/><path fill="rgb(202,203,204)" stroke="none" paint-order="stroke fill markers" d=" M 225.5 101.27000000000001 L 234.5 101.27000000000001 Q 236.5 101.27000000000001 236.5 103.27000000000001 L 236.5 106.73 Q 236.5 108.73 234.5 108.73 L 225.5 108.73 Q 223.5 108.73 223.5 106.73 L 223.5 103.27000000000001 Q 223.5 101.27000000000001 225.5 101.27000000000001 Z" fill-opacity="0.7"/><text fill="none" stroke="rgb(255,255,255)" font-family="Helvetica Neue, Helvetica, sans-serif" font-size="5.46px" font-style="normal" font-weight="normal" text-decoration="normal" x="230" y="107.73" text-anchor="middle" dominant-baseline="text-after-edge" stroke-opacity="0.7" stroke-linejoin="round" stroke-miterlimit="10" stroke-width="0.6">e1-3</text><text fill="rgb(0,0,0)" stroke="none" font-family="Helvetica Neue, Helvetica, sans-serif" font-size="5.46px" font-style="normal" font-weight="normal" text-decoration="normal" x="230" y="107.73" text-anchor="middle" dominant-baseline="text-after-edge" fill-opacity="0.7">e1-3</text><path fill="none" stroke="rgb(0,223,43)" paint-order="fill stroke markers" d=" M 42 189 L 98 189" stroke-opacity="0.7" stroke-linejoin="round" stroke-miterlimit="10" stroke-width="1.5"/><path fill="none" stroke="none"/><path fill="rgb(202,203,204)" stroke="none" paint-order="stroke fill markers" d=" M 57.5 185.26999999999998 L 66.5 185.26999999999998 Q 68.5 185.26999999999998 68.5 187.26999999999998 L 68.5 190.73 Q 68.5 192.73 66.5 192.73 L 57.5 192.73 Q 55.5 192.73 55.5 190.73 L 55.5 187.26999999999998 Q 55.5 185.26999999999998 57.5 185.26999999999998 Z" fill-opacity="0.7"/><text fill="none" stroke="rgb(255,255,255)" font-family="Helvetica Neue, Helvetica, sans-serif" font-size="5.46px" font-style="normal" font-weight="normal" text-decoration="normal" x="62" y="191.73" text-anchor="middle" dominant-baseline="text-after-edge" stroke-opacity="0.7" stroke-linejoin="round" stroke-miterlimit="10" stroke-width="0.6">e1-1</text><text fill="rgb(0,0,0)" stroke="none" font-family="Helvetica Neue, Helvetica, sans-serif" font-size="5.46px" font-style="normal" font-weight="normal" text-decoration="normal" x="62" y="191.73" text-anchor="middle" dominant-baseline="text-after-edge" fill-opacity="0.7">e1-1</text><path fill="none" stroke="none"/><path fill="rgb(202,203,204)" stroke="none" paint-order="stroke fill markers" d=" M 73.5 185.26999999999998 L 82.5 185.26999999999998 Q 84.5 185.26999999999998 84.5 187.26999999999998 L 84.5 190.73 Q 84.5 192.73 82.5 192.73 L 73.5 192.73 Q 71.5 192.73 71.5 190.73 L 71.5 187.26999999999998 Q 71.5 185.26999999999998 73.5 185.26999999999998 Z" fill-opacity="0.7"/><text fill="none" stroke="rgb(255,255,255)" font-family="Helvetica Neue, Helvetica, sans-serif" font-size="5.46px" font-style="normal" font-weight="normal" text-decoration="normal" x="78" y="191.73" text-anchor="middle" dominant-baseline="text-after-edge" stroke-opacity="0.7" stroke-linejoin="round" stroke-miterlimit="10" stroke-width="0.6">e1-3</text><text fill="rgb(0,0,0)" stroke="none" font-family="Helvetica Neue, Helvetica, sans-serif" font-size="5.46px" font-style="normal" font-weight="normal" text-decoration="normal" x="78" y="191.73" text-anchor="middle" dominant-baseline="text-after-edge" fill-opacity="0.7">e1-3</text><path fill="rgb(143,150,172)" stroke="none" paint-order="stroke fill markers" d=" M 98 98 L 98 112 L 112 112 L 112 98 Z" fill-opacity="1"/><g transform="translate(98, 98)">
                <svg width="14" height="14"
                        xmlns:xlink="http://www.w3.org/1999/xlink"
                        xmlns="http://www.w3.org/2000/svg"
                        xml:space="preserve"
                        style="enable-background:new 0 0 120 120;"
                        viewBox="0 0 120 120"
                        y="0px"
                        x="0px"
                        id="Layer_1"
                        version="1.1"
                        
                        
                        fill="none"
                    >
                        
                        <rect width="120" height="120" fill="#005aff" />
                        <g>
                            <g>
                                <path d="M71.7,19.7V48h28" fill="none" stroke="#FFFFFF" stroke-width="4" stroke-linecap="round" stroke-linejoin="round" stroke-miterlimit="10" />
                                <path d="M91.2,38.5l7.5,7.6c1.3,1.3,1.3,3.1,0,4.3L91.1,58" fill="none" stroke="#FFFFFF" stroke-width="4" stroke-linecap="round" stroke-linejoin="round" stroke-miterlimit="10" />
                            </g>
                            <g>
                                <path d="M20,47.8h28.4v-28" fill="none" stroke="#FFFFFF" stroke-width="4" stroke-linecap="round" stroke-linejoin="round" stroke-miterlimit="10" />
                                <path d="M38.8,28.3l7.6-7.5c1.3-1.3,3.1-1.3,4.3,0l7.7,7.6" fill="none" stroke="#FFFFFF" stroke-width="4" stroke-linecap="round" stroke-linejoin="round" stroke-miterlimit="10" />
                            </g>
                            <g>
                                <path d="M48,100.3V72H20" fill="none" stroke="#FFFFFF" stroke-width="4" stroke-linecap="round" stroke-linejoin="round" stroke-miterlimit="10" />
                                <path d="M28.5,81.5L21,73.9c-1.3-1.3-1.3-3.1,0-4.3l7.6-7.7" fill="none" stroke="#FFFFFF" stroke-width="4" stroke-linecap="round" stroke-linejoin="round" stroke-miterlimit="10" />
                            </g>
                            <g>
                                <path d="M100,71.9H71.6v28" fill="none" stroke="#FFFFFF" stroke-width="4" stroke-linecap="round" stroke-linejoin="round" stroke-miterlimit="10" />
                                <path d="M81.2,91.4l-7.6,7.5c-1.3,1.3-3.1,1.3-4.3,0l-7.7-7.6" fill="none" stroke="#FFFFFF" stroke-width="4" stroke-linecap="round" stroke-linejoin="round" stroke-miterlimit="10" />
                            </g>
                        </g>
                    </svg></g><path fill="none" stroke="none"/><path fill="rgb(0,0,0)" stroke="none" paint-order="stroke fill markers" d=" M 93 111 L 117 111 Q 119 111 119 113 L 119 118.53999999999999 Q 119 120.53999999999999 117 120.53999999999999 L 93 120.53999999999999 Q 91 120.53999999999999 91 118.53999999999999 L 91 113 Q 91 111 93 111 Z" fill-opacity="0.7"/><text fill="none" stroke="rgb(60,62,65)" font-family="Helvetica Neue, Helvetica, sans-serif" font-size="7.539999999999999px" font-style="normal" font-weight="normal" text-decoration="normal" x="105" y="119.53999999999999" text-anchor="middle" dominant-baseline="text-after-edge" stroke-opacity="1" stroke-linejoin="round" stroke-miterlimit="10" stroke-width="0.6">core-01</text><text fill="rgb(245,245,245)" stroke="none" font-family="Helvetica Neue, Helvetica, sans-serif" font-size="7.539999999999999px" font-style="normal" font-weight="normal" text-decoration="normal" x="105" y="119.53999999999999" text-anchor="middle" dominant-baseline="text-after-edge" fill-opacity="1">core-01</text><path fill="rgb(143,150,172)" stroke="none" paint-order="stroke fill markers" d=" M 196 98 L 196 112 L 210 112 L 210 98 Z" fill-opacity="1"/><g transform="translate(196, 98)">
                <svg width="14" height="14"
                        xmlns:xlink="http://www.w3.org/1999/xlink"
                        xmlns="http://www.w3.org/2000/svg"
                        xml:space="preserve"
                        style="enable-background:new 0 0 120 120;"
                        viewBox="0 0 120 120"
                        y="0px"
                        x="0px"
                        id="Layer_1"
                        version="1.1"
                        
                        
                        fill="none"
                    >
                        
                        <rect width="120" height="120" fill="#005aff" />
                        <g>
                            <g>
                                <path d="M71.7,19.7V48h28" fill="none" stroke="#FFFFFF" stroke-width="4" stroke-linecap="round" stroke-linejoin="round" stroke-miterlimit="10" />
                                <path d="M91.2,38.5l7.5,7.6c1.3,1.3,1.3,3.1,0,4.3L91.1,58" fill="none" stroke="#FFFFFF" stroke-width="4" stroke-linecap="round" stroke-linejoin="round" stroke-miterlimit="10" />
                            </g>
                            <g>
                                <path d="M20,47.8h28.4v-28" fill="none" stroke="#FFFFFF" stroke-width="4" stroke-linecap="round" stroke-linejoin="round" stroke-miterlimit="10" />
                                <path d="M38.8,28.3l7.6-7.5c1.3-1.3,3.1-1.3,4.3,0l7.7,7.6" fill="none" stroke="#FFFFFF" stroke-width="4" stroke-linecap="round" stroke-linejoin="round" stroke-miterlimit="10" />
                            </g>
                            <g>
                                <path d="M48,100.3V72H20" fill="none" stroke="#FFFFFF" stroke-width="4" stroke-linecap="round" stroke-linejoin="round" stroke-miterlimit="10" />
                                <path d="M28.5,81.5L21,73.9c-1.3-1.3-1.3-3.1,0-4.3l7.6-7.7" fill="none" stroke="#FFFFFF" stroke-width="4" stroke-linecap="round" stroke-linejoin="round" stroke-miterlimit="10" />
                            </g>
                            <g>
                                <path d="M100,71.9H71.6v28" fill="none" stroke="#FFFFFF" stroke-width="4" stroke-linecap="round" stroke-linejoin="round" stroke-miterlimit="10" />
                                <path d="M81.2,91.4l-7.6,7.5c-1.3,1.3-3.1,1.3-4.3,0l-7.7-7.6" fill="none" stroke="#FFFFFF" stroke-width="4" stroke-linecap="round" stroke-linejoin="round" stroke-miterlimit="10" />
                            </g>
                        </g>
                    </svg></g><path fill="none" stroke="none"/><path fill="rgb(0,0,0)" stroke="none" paint-order="stroke fill markers" d=" M 191 111 L 215 111 Q 217 111 217 113 L 217 118.53999999999999 Q 217 120.53999999999999 215 120.53999999999999 L 191 120.53999999999999 Q 189 120.53999999999999 189 118.53999999999999 L 189 113 Q 189 111 191 111 Z" fill-opacity="0.7"/><text fill="none" stroke="rgb(60,62,65)" font-family="Helvetica Neue, Helvetica, sans-serif" font-size="7.539999999999999px" font-style="normal" font-weight="normal" text-decoration="normal" x="203" y="119.53999999999999" text-anchor="middle" dominant-baseline="text-after-edge" stroke-opacity="1" stroke-linejoin="round" stroke-miterlimit="10" stroke-width="0.6">core-02</text><text fill="rgb(245,245,245)" stroke="none" font-family="Helvetica Neue, Helvetica, sans-serif" font-size="7.539999999999999px" font-style="normal" font-weight="normal" text-decoration="normal" x="203" y="119.53999999999999" text-anchor="middle" dominant-baseline="text-after-edge" fill-opacity="1">core-02</text><path fill="rgb(143,150,172)" stroke="none" paint-order="stroke fill markers" d=" M 196 182 L 196 196 L 210 196 L 210 182 Z" fill-opacity="1"/><g transform="translate(196, 182)">
                <svg width="14" height="14"
                        xmlns:xlink="http://www.w3.org/1999/xlink"
                        xmlns="http://www.w3.org/2000/svg"
                        xml:space="preserve"
                        style="enable-background:new 0 0 120 120;"
                        viewBox="0 0 120 120"
                        y="0px"
                        x="0px"
                        id="Layer_1"
                        version="1.1"
                        
                        
                        fill="none"
                    >
                        
                        <rect width="120" height="120" fill="#005aff" />
                        <g>
                            <g>
                                <path d="M71.7,19.7V48h28" fill="none" stroke="#FFFFFF" stroke-width="4" stroke-linecap="round" stroke-linejoin="round" stroke-miterlimit="10" />
                                <path d="M91.2,38.5l7.5,7.6c1.3,1.3,1.3,3.1,0,4.3L91.1,58" fill="none" stroke="#FFFFFF" stroke-width="4" stroke-linecap="round" stroke-linejoin="round" stroke-miterlimit="10" />
                            </g>
                            <g>
                                <path d="M20,47.8h28.4v-28" fill="none" stroke="#FFFFFF" stroke-width="4" stroke-linecap="round" stroke-linejoin="round" stroke-miterlimit="10" />
                                <path d="M38.8,28.3l7.6-7.5c1.3-1.3,3.1-1.3,4.3,0l7.7,7.6" fill="none" stroke="#FFFFFF" stroke-width="4" stroke-linecap="round" stroke-linejoin="round" stroke-miterlimit="10" />
                            </g>
                            <g>
                                <path d="M48,100.3V72H20" fill="none" stroke="#FFFFFF" stroke-width="4" stroke-linecap="round" stroke-linejoin="round" stroke-miterlimit="10" />
                                <path d="M28.5,81.5L21,73.9c-1.3-1.3-1.3-3.1,0-4.3l7.6-7.7" fill="none" stroke="#FFFFFF" stroke-width="4" stroke-linecap="round" stroke-linejoin="round" stroke-miterlimit="10" />
                            </g>
                            <g>
                                <path d="M100,71.9H71.6v28" fill="none" stroke="#FFFFFF" stroke-width="4" stroke-linecap="round" stroke-linejoin="round" stroke-miterlimit="10" />
                                <path d="M81.2,91.4l-7.6,7.5c-1.3,1.3-3.1,1.3-4.3,0l-7.7-7.6" fill="none" stroke="#FFFFFF" stroke-width="4" stroke-linecap="round" stroke-linejoin="round" stroke-miterlimit="10" />
                            </g>
                        </g>
                    </svg></g><path fill="none" stroke="none"/><path fill="rgb(0,0,0)" stroke="none" paint-order="stroke fill markers" d=" M 191 195 L 215 195 Q 217 195 217 197 L 217 202.54 Q 217 204.54 215 204.54 L 191 204.54 Q 189 204.54 189 202.54 L 189 197 Q 189 195 191 195 Z" fill-opacity="0.7"/><text fill="none" stroke="rgb(60,62,65)" font-family="Helvetica Neue, Helvetica, sans-serif" font-size="7.539999999999999px" font-style="normal" font-weight="normal" text-decoration="normal" x="203" y="203.54" text-anchor="middle" dominant-baseline="text-after-edge" stroke-opacity="1" stroke-linejoin="round" stroke-miterlimit="10" stroke-width="0.6">core-03</text><text fill="rgb(245,245,245)" stroke="none" font-family="Helvetica Neue, Helvetica, sans-serif" font-size="7.539999999999999px" font-style="normal" font-weight="normal" text-decoration="normal" x="203" y="203.54" text-anchor="middle" dominant-baseline="text-after-edge" fill-opacity="1">core-03</text><path fill="rgb(143,150,172)" stroke="none" paint-order="stroke fill markers" d=" M 98 182 L 98 196 L 112 196 L 112 182 Z" fill-opacity="1"/><g transform="translate(98, 182)">
                <svg width="14" height="14"
                        xmlns:xlink="http://www.w3.org/1999/xlink"
                        xmlns="http://www.w3.org/2000/svg"
                        xml:space="preserve"
                        style="enable-background:new 0 0 120 120;"
                        viewBox="0 0 120 120"
                        y="0px"
                        x="0px"
                        id="Layer_1"
                        version="1.1"
                        
                        
                        fill="none"
                    >
                        
                        <rect width="120" height="120" fill="#005aff" />
                        <g>
                            <g>
                                <path d="M71.7,19.7V48h28" fill="none" stroke="#FFFFFF" stroke-width="4" stroke-linecap="round" stroke-linejoin="round" stroke-miterlimit="10" />
                                <path d="M91.2,38.5l7.5,7.6c1.3,1.3,1.3,3.1,0,4.3L91.1,58" fill="none" stroke="#FFFFFF" stroke-width="4" stroke-linecap="round" stroke-linejoin="round" stroke-miterlimit="10" />
                            </g>
                            <g>
                                <path d="M20,47.8h28.4v-28" fill="none" stroke="#FFFFFF" stroke-width="4" stroke-linecap="round" stroke-linejoin="round" stroke-miterlimit="10" />
                                <path d="M38.8,28.3l7.6-7.5c1.3-1.3,3.1-1.3,4.3,0l7.7,7.6" fill="none" stroke="#FFFFFF" stroke-width="4" stroke-linecap="round" stroke-linejoin="round" stroke-miterlimit="10" />
                            </g>
                            <g>
                                <path d="M48,100.3V72H20" fill="none" stroke="#FFFFFF" stroke-width="4" stroke-linecap="round" stroke-linejoin="round" stroke-miterlimit="10" />
                                <path d="M28.5,81.5L21,73.9c-1.3-1.3-1.3-3.1,0-4.3l7.6-7.7" fill="none" stroke="#FFFFFF" stroke-width="4" stroke-linecap="round" stroke-linejoin="round" stroke-miterlimit="10" />
                            </g>
                            <g>
                                <path d="M100,71.9H71.6v28" fill="none" stroke="#FFFFFF" stroke-width="4" stroke-linecap="round" stroke-linejoin="round" stroke-miterlimit="10" />
                                <path d="M81.2,91.4l-7.6,7.5c-1.3,1.3-3.1,1.3-4.3,0l-7.7-7.6" fill="none" stroke="#FFFFFF" stroke-width="4" stroke-linecap="round" stroke-linejoin="round" stroke-miterlimit="10" />
                            </g>
                        </g>
                    </svg></g><path fill="none" stroke="none"/><path fill="rgb(0,0,0)" stroke="none" paint-order="stroke fill markers" d=" M 93 195 L 117 195 Q 119 195 119 197 L 119 202.54 Q 119 204.54 117 204.54 L 93 204.54 Q 91 204.54 91 202.54 L 91 197 Q 91 195 93 195 Z" fill-opacity="0.7"/><text fill="none" stroke="rgb(60,62,65)" font-family="Helvetica Neue, Helvetica, sans-serif" font-size="7.539999999999999px" font-style="normal" font-weight="normal" text-decoration="normal" x="105" y="203.54" text-anchor="middle" dominant-baseline="text-after-edge" stroke-opacity="1" stroke-linejoin="round" stroke-miterlimit="10" stroke-width="0.6">core-04</text><text fill="rgb(245,245,245)" stroke="none" font-family="Helvetica Neue, Helvetica, sans-serif" font-size="7.539999999999999px" font-style="normal" font-weight="normal" text-decoration="normal" x="105" y="203.54" text-anchor="middle" dominant-baseline="text-after-edge" fill-opacity="1">core-04</text><path fill="rgb(143,150,172)" stroke="none" paint-order="stroke fill markers" d=" M 28.000000000000004 98 L 28 112 L 42 112 L 42 98 Z" fill-opacity="1"/><g transform="translate(28, 98)">
                <svg width="14" height="14"
                        xmlns:xlink="http://www.w3.org/1999/xlink"
                        xmlns="http://www.w3.org/2000/svg"
                        xml:space="preserve"
                        style="enable-background:new 0 0 120 120;"
                        viewBox="0 0 120 120"
                        y="0px"
                        x="0px"
                        id="Layer_1"
                        version="1.1"
                        
                        
                        fill="none"
                    >
                        
                        <rect width="120" height="120" fill="#005aff" />
                        <g>
                            <g>
                                <path d="M71.7,19.7V48h28" fill="none" stroke="#FFFFFF" stroke-width="4" stroke-linecap="round" stroke-linejoin="round" stroke-miterlimit="10" />
                                <path d="M91.2,38.5l7.5,7.6c1.3,1.3,1.3,3.1,0,4.3L91.1,58" fill="none" stroke="#FFFFFF" stroke-width="4" stroke-linecap="round" stroke-linejoin="round" stroke-miterlimit="10" />
                            </g>
                            <g>
                                <path d="M20,47.8h28.4v-28" fill="none" stroke="#FFFFFF" stroke-width="4" stroke-linecap="round" stroke-linejoin="round" stroke-miterlimit="10" />
                                <path d="M38.8,28.3l7.6-7.5c1.3-1.3,3.1-1.3,4.3,0l7.7,7.6" fill="none" stroke="#FFFFFF" stroke-width="4" stroke-linecap="round" stroke-linejoin="round" stroke-miterlimit="10" />
                            </g>
                            <g>
                                <path d="M48,100.3V72H20" fill="none" stroke="#FFFFFF" stroke-width="4" stroke-linecap="round" stroke-linejoin="round" stroke-miterlimit="10" />
                                <path d="M28.5,81.5L21,73.9c-1.3-1.3-1.3-3.1,0-4.3l7.6-7.7" fill="none" stroke="#FFFFFF" stroke-width="4" stroke-linecap="round" stroke-linejoin="round" stroke-miterlimit="10" />
                            </g>
                            <g>
                                <path d="M100,71.9H71.6v28" fill="none" stroke="#FFFFFF" stroke-width="4" stroke-linecap="round" stroke-linejoin="round" stroke-miterlimit="10" />
                                <path d="M81.2,91.4l-7.6,7.5c-1.3,1.3-3.1,1.3-4.3,0l-7.7-7.6" fill="none" stroke="#FFFFFF" stroke-width="4" stroke-linecap="round" stroke-linejoin="round" stroke-miterlimit="10" />
                            </g>
                        </g>
                    </svg></g><path fill="none" stroke="none"/><path fill="rgb(0,0,0)" stroke="none" paint-order="stroke fill markers" d=" M 28 111 L 42 111 Q 44 111 44 113 L 44 118.53999999999999 Q 44 120.53999999999999 42 120.53999999999999 L 28 120.53999999999999 Q 26 120.53999999999999 26 118.53999999999999 L 26 113 Q 26 111 28 111 Z" fill-opacity="0.7"/><text fill="none" stroke="rgb(60,62,65)" font-family="Helvetica Neue, Helvetica, sans-serif" font-size="7.539999999999999px" font-style="normal" font-weight="normal" text-decoration="normal" x="35" y="119.53999999999999" text-anchor="middle" dominant-baseline="text-after-edge" stroke-opacity="1" stroke-linejoin="round" stroke-miterlimit="10" stroke-width="0.6">rj-01</text><text fill="rgb(245,245,245)" stroke="none" font-family="Helvetica Neue, Helvetica, sans-serif" font-size="7.539999999999999px" font-style="normal" font-weight="normal" text-decoration="normal" x="35" y="119.53999999999999" text-anchor="middle" dominant-baseline="text-after-edge" fill-opacity="1">rj-01</text><path fill="rgb(143,150,172)" stroke="none" paint-order="stroke fill markers" d=" M 280 98 L 280 112 L 294 112 L 294 98 Z" fill-opacity="1"/><g transform="translate(280, 98)">
                <svg width="14" height="14"
                        xmlns:xlink="http://www.w3.org/1999/xlink"
                        xmlns="http://www.w3.org/2000/svg"
                        xml:space="preserve"
                        style="enable-background:new 0 0 120 120;"
                        viewBox="0 0 120 120"
                        y="0px"
                        x="0px"
                        id="Layer_1"
                        version="1.1"
                        
                        
                        fill="none"
                    >
                        
                        <rect width="120" height="120" fill="#005aff" />
                        <g>
                            <g>
                                <path d="M71.7,19.7V48h28" fill="none" stroke="#FFFFFF" stroke-width="4" stroke-linecap="round" stroke-linejoin="round" stroke-miterlimit="10" />
                                <path d="M91.2,38.5l7.5,7.6c1.3,1.3,1.3,3.1,0,4.3L91.1,58" fill="none" stroke="#FFFFFF" stroke-width="4" stroke-linecap="round" stroke-linejoin="round" stroke-miterlimit="10" />
                            </g>
                            <g>
                                <path d="M20,47.8h28.4v-28" fill="none" stroke="#FFFFFF" stroke-width="4" stroke-linecap="round" stroke-linejoin="round" stroke-miterlimit="10" />
                                <path d="M38.8,28.3l7.6-7.5c1.3-1.3,3.1-1.3,4.3,0l7.7,7.6" fill="none" stroke="#FFFFFF" stroke-width="4" stroke-linecap="round" stroke-linejoin="round" stroke-miterlimit="10" />
                            </g>
                            <g>
                                <path d="M48,100.3V72H20" fill="none" stroke="#FFFFFF" stroke-width="4" stroke-linecap="round" stroke-linejoin="round" stroke-miterlimit="10" />
                                <path d="M28.5,81.5L21,73.9c-1.3-1.3-1.3-3.1,0-4.3l7.6-7.7" fill="none" stroke="#FFFFFF" stroke-width="4" stroke-linecap="round" stroke-linejoin="round" stroke-miterlimit="10" />
                            </g>
                            <g>
                                <path d="M100,71.9H71.6v28" fill="none" stroke="#FFFFFF" stroke-width="4" stroke-linecap="round" stroke-linejoin="round" stroke-miterlimit="10" />
                                <path d="M81.2,91.4l-7.6,7.5c-1.3,1.3-3.1,1.3-4.3,0l-7.7-7.6" fill="none" stroke="#FFFFFF" stroke-width="4" stroke-linecap="round" stroke-linejoin="round" stroke-miterlimit="10" />
                            </g>
                        </g>
                    </svg></g><path fill="none" stroke="none"/><path fill="rgb(0,0,0)" stroke="none" paint-order="stroke fill markers" d=" M 278.5 111 L 295.5 111 Q 297.5 111 297.5 113 L 297.5 118.53999999999999 Q 297.5 120.53999999999999 295.5 120.53999999999999 L 278.5 120.53999999999999 Q 276.5 120.53999999999999 276.5 118.53999999999999 L 276.5 113 Q 276.5 111 278.5 111 Z" fill-opacity="0.7"/><text fill="none" stroke="rgb(60,62,65)" font-family="Helvetica Neue, Helvetica, sans-serif" font-size="7.539999999999999px" font-style="normal" font-weight="normal" text-decoration="normal" x="287" y="119.53999999999999" text-anchor="middle" dominant-baseline="text-after-edge" stroke-opacity="1" stroke-linejoin="round" stroke-miterlimit="10" stroke-width="0.6">sp-01</text><text fill="rgb(245,245,245)" stroke="none" font-family="Helvetica Neue, Helvetica, sans-serif" font-size="7.539999999999999px" font-style="normal" font-weight="normal" text-decoration="normal" x="287" y="119.53999999999999" text-anchor="middle" dominant-baseline="text-after-edge" fill-opacity="1">sp-01</text><path fill="rgb(143,150,172)" stroke="none" paint-order="stroke fill markers" d=" M 28.000000000000004 182 L 28 196 L 42 196 L 42 182 Z" fill-opacity="1"/><g transform="translate(28, 182)">
                <svg width="14" height="14"
                        xmlns:xlink="http://www.w3.org/1999/xlink"
                        xmlns="http://www.w3.org/2000/svg"
                        xml:space="preserve"
                        style="enable-background:new 0 0 120 120;"
                        viewBox="0 0 120 120"
                        y="0px"
                        x="0px"
                        id="Layer_1"
                        version="1.1"
                        
                        
                        fill="none"
                    >
                        
                        <rect width="120" height="120" fill="#005aff" />
                        <g>
                            <g>
                                <path d="M71.7,19.7V48h28" fill="none" stroke="#FFFFFF" stroke-width="4" stroke-linecap="round" stroke-linejoin="round" stroke-miterlimit="10" />
                                <path d="M91.2,38.5l7.5,7.6c1.3,1.3,1.3,3.1,0,4.3L91.1,58" fill="none" stroke="#FFFFFF" stroke-width="4" stroke-linecap="round" stroke-linejoin="round" stroke-miterlimit="10" />
                            </g>
                            <g>
                                <path d="M20,47.8h28.4v-28" fill="none" stroke="#FFFFFF" stroke-width="4" stroke-linecap="round" stroke-linejoin="round" stroke-miterlimit="10" />
                                <path d="M38.8,28.3l7.6-7.5c1.3-1.3,3.1-1.3,4.3,0l7.7,7.6" fill="none" stroke="#FFFFFF" stroke-width="4" stroke-linecap="round" stroke-linejoin="round" stroke-miterlimit="10" />
                            </g>
                            <g>
                                <path d="M48,100.3V72H20" fill="none" stroke="#FFFFFF" stroke-width="4" stroke-linecap="round" stroke-linejoin="round" stroke-miterlimit="10" />
                                <path d="M28.5,81.5L21,73.9c-1.3-1.3-1.3-3.1,0-4.3l7.6-7.7" fill="none" stroke="#FFFFFF" stroke-width="4" stroke-linecap="round" stroke-linejoin="round" stroke-miterlimit="10" />
                            </g>
                            <g>
                                <path d="M100,71.9H71.6v28" fill="none" stroke="#FFFFFF" stroke-width="4" stroke-linecap="round" stroke-linejoin="round" stroke-miterlimit="10" />
                                <path d="M81.2,91.4l-7.6,7.5c-1.3,1.3-3.1,1.3-4.3,0l-7.7-7.6" fill="none" stroke="#FFFFFF" stroke-width="4" stroke-linecap="round" stroke-linejoin="round" stroke-miterlimit="10" />
                            </g>
                        </g>
                    </svg></g><path fill="none" stroke="none"/><path fill="rgb(0,0,0)" stroke="none" paint-order="stroke fill markers" d=" M 27 195 L 43 195 Q 45 195 45 197 L 45 202.54 Q 45 204.54 43 204.54 L 27 204.54 Q 25 204.54 25 202.54 L 25 197 Q 25 195 27 195 Z" fill-opacity="0.7"/><text fill="none" stroke="rgb(60,62,65)" font-family="Helvetica Neue, Helvetica, sans-serif" font-size="7.539999999999999px" font-style="normal" font-weight="normal" text-decoration="normal" x="35" y="203.54" text-anchor="middle" dominant-baseline="text-after-edge" stroke-opacity="1" stroke-linejoin="round" stroke-miterlimit="10" stroke-width="0.6">df-01</text><text fill="rgb(245,245,245)" stroke="none" font-family="Helvetica Neue, Helvetica, sans-serif" font-size="7.539999999999999px" font-style="normal" font-weight="normal" text-decoration="normal" x="35" y="203.54" text-anchor="middle" dominant-baseline="text-after-edge" fill-opacity="1">df-01</text><g transform="scale(0.4000000095367434,0.4000000095367434) translate(54.249998706579206,242.49999421834946)"/></g></svg>